<svg width="391" height="197" viewBox="0 0 391 197" fill="none" xmlns="http://www.w3.org/2000/svg">
<g clip-path="url(#clip0_263_3104)">
<rect x="1" y="1" width="389" height="195" fill="#282828"/>
</g>
<rect x="0.75" y="0.75" width="389.5" height="195.5" rx="10.25" stroke="white" stroke-opacity="0.12" stroke-width="0.5"/>
<g filter="url(#filter0_di_263_3104)">
<path d="M1 17C1 11.3995 1 8.59921 2.08993 6.46009C3.04867 4.57847 4.57847 3.04867 6.46009 2.08993C8.59921 1 11.3995 1 17 1H374C379.601 1 382.401 1 384.54 2.08993C386.422 3.04867 387.951 4.57847 388.91 6.46009C390 8.59921 390 11.3995 390 17V29H1V17Z" fill="#1E1E1E"/>
<path fill-rule="evenodd" clip-rule="evenodd" d="M15 21C18.3137 21 21 18.3137 21 15C21 11.6863 18.3137 9 15 9C11.6863 9 9 11.6863 9 15C9 18.3137 11.6863 21 15 21Z" fill="#FF5E57"/>
<path fill-rule="evenodd" clip-rule="evenodd" d="M35 21C38.3137 21 41 18.3137 41 15C41 11.6863 38.3137 9 35 9C31.6863 9 29 11.6863 29 15C29 18.3137 31.6863 21 35 21Z" fill="#FFBB2E"/>
<path fill-rule="evenodd" clip-rule="evenodd" d="M55 21C58.3137 21 61 18.3137 61 15C61 11.6863 58.3137 9 55 9C51.6863 9 49 11.6863 49 15C49 18.3137 51.6863 21 55 21Z" fill="#38C149"/>
<path d="M139.461 10.939V11.901H135.522V14.956H138.72V15.918H135.522V20H134.339V10.939H139.461ZM142.021 14.033C142.229 13.6257 142.524 13.3093 142.905 13.084C143.295 12.8587 143.768 12.746 144.322 12.746V13.968H144.01C142.684 13.968 142.021 14.6873 142.021 16.126V20H140.838V12.876H142.021V14.033ZM148.743 20.117C148.076 20.117 147.469 19.9653 146.923 19.662C146.386 19.3587 145.961 18.9297 145.649 18.375C145.346 17.8117 145.194 17.1617 145.194 16.425C145.194 15.697 145.35 15.0557 145.662 14.501C145.983 13.9377 146.416 13.5087 146.962 13.214C147.508 12.9107 148.119 12.759 148.795 12.759C149.471 12.759 150.082 12.9107 150.628 13.214C151.174 13.5087 151.603 13.9333 151.915 14.488C152.236 15.0427 152.396 15.6883 152.396 16.425C152.396 17.1617 152.231 17.8117 151.902 18.375C151.581 18.9297 151.144 19.3587 150.589 19.662C150.034 19.9653 149.419 20.117 148.743 20.117ZM148.743 19.077C149.168 19.077 149.566 18.9773 149.939 18.778C150.312 18.5787 150.611 18.2797 150.836 17.881C151.07 17.4823 151.187 16.997 151.187 16.425C151.187 15.853 151.074 15.3677 150.849 14.969C150.624 14.5703 150.329 14.2757 149.965 14.085C149.601 13.8857 149.207 13.786 148.782 13.786C148.349 13.786 147.95 13.8857 147.586 14.085C147.231 14.2757 146.945 14.5703 146.728 14.969C146.511 15.3677 146.403 15.853 146.403 16.425C146.403 17.0057 146.507 17.4953 146.715 17.894C146.932 18.2927 147.218 18.5917 147.573 18.791C147.928 18.9817 148.318 19.077 148.743 19.077ZM157.37 12.746C158.237 12.746 158.939 13.0103 159.476 13.539C160.014 14.059 160.282 14.813 160.282 15.801V20H159.112V15.97C159.112 15.2593 158.935 14.7177 158.579 14.345C158.224 13.9637 157.739 13.773 157.123 13.773C156.499 13.773 156.001 13.968 155.628 14.358C155.264 14.748 155.082 15.3157 155.082 16.061V20H153.899V12.876H155.082V13.89C155.316 13.526 155.633 13.2443 156.031 13.045C156.439 12.8457 156.885 12.746 157.37 12.746ZM163.606 13.851V18.05C163.606 18.3967 163.679 18.6437 163.827 18.791C163.974 18.9297 164.23 18.999 164.594 18.999H165.465V20H164.399C163.74 20 163.246 19.8483 162.917 19.545C162.587 19.2417 162.423 18.7433 162.423 18.05V13.851H161.5V12.876H162.423V11.082H163.606V12.876H165.465V13.851H163.606ZM173.346 16.165C173.346 16.3903 173.333 16.6287 173.307 16.88H167.613C167.656 17.582 167.895 18.1323 168.328 18.531C168.77 18.921 169.303 19.116 169.927 19.116C170.438 19.116 170.863 18.999 171.201 18.765C171.548 18.5223 171.79 18.2017 171.929 17.803H173.203C173.012 18.4877 172.631 19.0467 172.059 19.48C171.487 19.9047 170.776 20.117 169.927 20.117C169.251 20.117 168.644 19.9653 168.107 19.662C167.578 19.3587 167.162 18.9297 166.859 18.375C166.556 17.8117 166.404 17.1617 166.404 16.425C166.404 15.6883 166.551 15.0427 166.846 14.488C167.141 13.9333 167.552 13.5087 168.081 13.214C168.618 12.9107 169.234 12.759 169.927 12.759C170.603 12.759 171.201 12.9063 171.721 13.201C172.241 13.4957 172.64 13.903 172.917 14.423C173.203 14.9343 173.346 15.515 173.346 16.165ZM172.124 15.918C172.124 15.4673 172.024 15.0817 171.825 14.761C171.626 14.4317 171.353 14.1847 171.006 14.02C170.668 13.8467 170.291 13.76 169.875 13.76C169.277 13.76 168.766 13.9507 168.341 14.332C167.925 14.7133 167.687 15.242 167.626 15.918H172.124ZM178.327 12.746C179.193 12.746 179.895 13.0103 180.433 13.539C180.97 14.059 181.239 14.813 181.239 15.801V20H180.069V15.97C180.069 15.2593 179.891 14.7177 179.536 14.345C179.18 13.9637 178.695 13.773 178.08 13.773C177.456 13.773 176.957 13.968 176.585 14.358C176.221 14.748 176.039 15.3157 176.039 16.061V20H174.856V12.876H176.039V13.89C176.273 13.526 176.589 13.2443 176.988 13.045C177.395 12.8457 177.841 12.746 178.327 12.746ZM182.677 16.412C182.677 15.684 182.824 15.047 183.119 14.501C183.414 13.9463 183.817 13.5173 184.328 13.214C184.848 12.9107 185.429 12.759 186.07 12.759C186.625 12.759 187.14 12.889 187.617 13.149C188.094 13.4003 188.458 13.734 188.709 14.15V10.38H189.905V20H188.709V18.661C188.475 19.0857 188.128 19.4367 187.669 19.714C187.21 19.9827 186.672 20.117 186.057 20.117C185.424 20.117 184.848 19.961 184.328 19.649C183.817 19.337 183.414 18.8993 183.119 18.336C182.824 17.7727 182.677 17.1313 182.677 16.412ZM188.709 16.425C188.709 15.8877 188.601 15.4197 188.384 15.021C188.167 14.6223 187.873 14.319 187.5 14.111C187.136 13.8943 186.733 13.786 186.291 13.786C185.849 13.786 185.446 13.89 185.082 14.098C184.718 14.306 184.428 14.6093 184.211 15.008C183.994 15.4067 183.886 15.8747 183.886 16.412C183.886 16.958 183.994 17.4347 184.211 17.842C184.428 18.2407 184.718 18.5483 185.082 18.765C185.446 18.973 185.849 19.077 186.291 19.077C186.733 19.077 187.136 18.973 187.5 18.765C187.873 18.5483 188.167 18.2407 188.384 17.842C188.601 17.4347 188.709 16.9623 188.709 16.425ZM198.087 10.939C199.075 10.939 199.929 11.1253 200.648 11.498C201.376 11.862 201.931 12.3863 202.312 13.071C202.702 13.7557 202.897 14.5617 202.897 15.489C202.897 16.4163 202.702 17.2223 202.312 17.907C201.931 18.583 201.376 19.103 200.648 19.467C199.929 19.8223 199.075 20 198.087 20H195.266V10.939H198.087ZM198.087 19.025C199.257 19.025 200.15 18.7173 200.765 18.102C201.38 17.478 201.688 16.607 201.688 15.489C201.688 14.3623 201.376 13.4827 200.752 12.85C200.137 12.2173 199.248 11.901 198.087 11.901H196.449V19.025H198.087ZM210.905 16.165C210.905 16.3903 210.892 16.6287 210.866 16.88H205.172C205.216 17.582 205.454 18.1323 205.887 18.531C206.329 18.921 206.862 19.116 207.486 19.116C207.998 19.116 208.422 18.999 208.76 18.765C209.107 18.5223 209.35 18.2017 209.488 17.803H210.762C210.572 18.4877 210.19 19.0467 209.618 19.48C209.046 19.9047 208.336 20.117 207.486 20.117C206.81 20.117 206.204 19.9653 205.666 19.662C205.138 19.3587 204.722 18.9297 204.418 18.375C204.115 17.8117 203.963 17.1617 203.963 16.425C203.963 15.6883 204.111 15.0427 204.405 14.488C204.7 13.9333 205.112 13.5087 205.64 13.214C206.178 12.9107 206.793 12.759 207.486 12.759C208.162 12.759 208.76 12.9063 209.28 13.201C209.8 13.4957 210.199 13.903 210.476 14.423C210.762 14.9343 210.905 15.515 210.905 16.165ZM209.683 15.918C209.683 15.4673 209.584 15.0817 209.384 14.761C209.185 14.4317 208.912 14.1847 208.565 14.02C208.227 13.8467 207.85 13.76 207.434 13.76C206.836 13.76 206.325 13.9507 205.9 14.332C205.484 14.7133 205.246 15.242 205.185 15.918H209.683ZM215.067 18.908L217.277 12.876H218.538L215.743 20H214.365L211.57 12.876H212.844L215.067 18.908ZM226.15 16.165C226.15 16.3903 226.137 16.6287 226.111 16.88H220.417C220.46 17.582 220.699 18.1323 221.132 18.531C221.574 18.921 222.107 19.116 222.731 19.116C223.242 19.116 223.667 18.999 224.005 18.765C224.352 18.5223 224.594 18.2017 224.733 17.803H226.007C225.816 18.4877 225.435 19.0467 224.863 19.48C224.291 19.9047 223.58 20.117 222.731 20.117C222.055 20.117 221.448 19.9653 220.911 19.662C220.382 19.3587 219.966 18.9297 219.663 18.375C219.36 17.8117 219.208 17.1617 219.208 16.425C219.208 15.6883 219.355 15.0427 219.65 14.488C219.945 13.9333 220.356 13.5087 220.885 13.214C221.422 12.9107 222.038 12.759 222.731 12.759C223.407 12.759 224.005 12.9063 224.525 13.201C225.045 13.4957 225.444 13.903 225.721 14.423C226.007 14.9343 226.15 15.515 226.15 16.165ZM224.928 15.918C224.928 15.4673 224.828 15.0817 224.629 14.761C224.43 14.4317 224.157 14.1847 223.81 14.02C223.472 13.8467 223.095 13.76 222.679 13.76C222.081 13.76 221.57 13.9507 221.145 14.332C220.729 14.7133 220.491 15.242 220.43 15.918H224.928ZM228.843 10.38V20H227.66V10.38H228.843ZM233.914 20.117C233.246 20.117 232.64 19.9653 232.094 19.662C231.556 19.3587 231.132 18.9297 230.82 18.375C230.516 17.8117 230.365 17.1617 230.365 16.425C230.365 15.697 230.521 15.0557 230.833 14.501C231.153 13.9377 231.587 13.5087 232.133 13.214C232.679 12.9107 233.29 12.759 233.966 12.759C234.642 12.759 235.253 12.9107 235.799 13.214C236.345 13.5087 236.774 13.9333 237.086 14.488C237.406 15.0427 237.567 15.6883 237.567 16.425C237.567 17.1617 237.402 17.8117 237.073 18.375C236.752 18.9297 236.314 19.3587 235.76 19.662C235.205 19.9653 234.59 20.117 233.914 20.117ZM233.914 19.077C234.338 19.077 234.737 18.9773 235.11 18.778C235.482 18.5787 235.781 18.2797 236.007 17.881C236.241 17.4823 236.358 16.997 236.358 16.425C236.358 15.853 236.245 15.3677 236.02 14.969C235.794 14.5703 235.5 14.2757 235.136 14.085C234.772 13.8857 234.377 13.786 233.953 13.786C233.519 13.786 233.121 13.8857 232.757 14.085C232.401 14.2757 232.115 14.5703 231.899 14.969C231.682 15.3677 231.574 15.853 231.574 16.425C231.574 17.0057 231.678 17.4953 231.886 17.894C232.102 18.2927 232.388 18.5917 232.744 18.791C233.099 18.9817 233.489 19.077 233.914 19.077ZM240.253 14.189C240.487 13.7817 240.834 13.4437 241.293 13.175C241.761 12.8977 242.303 12.759 242.918 12.759C243.551 12.759 244.123 12.9107 244.634 13.214C245.154 13.5173 245.562 13.9463 245.856 14.501C246.151 15.047 246.298 15.684 246.298 16.412C246.298 17.1313 246.151 17.7727 245.856 18.336C245.562 18.8993 245.154 19.337 244.634 19.649C244.123 19.961 243.551 20.117 242.918 20.117C242.312 20.117 241.774 19.9827 241.306 19.714C240.847 19.4367 240.496 19.0943 240.253 18.687V23.38H239.07V12.876H240.253V14.189ZM245.089 16.412C245.089 15.8747 244.981 15.4067 244.764 15.008C244.548 14.6093 244.253 14.306 243.88 14.098C243.516 13.89 243.113 13.786 242.671 13.786C242.238 13.786 241.835 13.8943 241.462 14.111C241.098 14.319 240.804 14.6267 240.578 15.034C240.362 15.4327 240.253 15.8963 240.253 16.425C240.253 16.9623 240.362 17.4347 240.578 17.842C240.804 18.2407 241.098 18.5483 241.462 18.765C241.835 18.973 242.238 19.077 242.671 19.077C243.113 19.077 243.516 18.973 243.88 18.765C244.253 18.5483 244.548 18.2407 244.764 17.842C244.981 17.4347 245.089 16.958 245.089 16.412ZM254.303 16.165C254.303 16.3903 254.29 16.6287 254.264 16.88H248.57C248.614 17.582 248.852 18.1323 249.285 18.531C249.727 18.921 250.26 19.116 250.884 19.116C251.396 19.116 251.82 18.999 252.158 18.765C252.505 18.5223 252.748 18.2017 252.886 17.803H254.16C253.97 18.4877 253.588 19.0467 253.016 19.48C252.444 19.9047 251.734 20.117 250.884 20.117C250.208 20.117 249.602 19.9653 249.064 19.662C248.536 19.3587 248.12 18.9297 247.816 18.375C247.513 17.8117 247.361 17.1617 247.361 16.425C247.361 15.6883 247.509 15.0427 247.803 14.488C248.098 13.9333 248.51 13.5087 249.038 13.214C249.576 12.9107 250.191 12.759 250.884 12.759C251.56 12.759 252.158 12.9063 252.678 13.201C253.198 13.4957 253.597 13.903 253.874 14.423C254.16 14.9343 254.303 15.515 254.303 16.165ZM253.081 15.918C253.081 15.4673 252.982 15.0817 252.782 14.761C252.583 14.4317 252.31 14.1847 251.963 14.02C251.625 13.8467 251.248 13.76 250.832 13.76C250.234 13.76 249.723 13.9507 249.298 14.332C248.882 14.7133 248.644 15.242 248.583 15.918H253.081ZM256.996 14.033C257.204 13.6257 257.499 13.3093 257.88 13.084C258.27 12.8587 258.742 12.746 259.297 12.746V13.968H258.985C257.659 13.968 256.996 14.6873 256.996 16.126V20H255.813V12.876H256.996V14.033Z" fill="#EBEBF5"/>
</g>
<defs>
<filter id="filter0_di_263_3104" x="1" y="1" width="389" height="28.5" filterUnits="userSpaceOnUse" color-interpolation-filters="sRGB">
<feFlood flood-opacity="0" result="BackgroundImageFix"/>
<feColorMatrix in="SourceAlpha" type="matrix" values="0 0 0 0 0 0 0 0 0 0 0 0 0 0 0 0 0 0 127 0" result="hardAlpha"/>
<feOffset dy="0.5"/>
<feColorMatrix type="matrix" values="0 0 0 0 0 0 0 0 0 0 0 0 0 0 0 0 0 0 0.15 0"/>
<feBlend mode="normal" in2="BackgroundImageFix" result="effect1_dropShadow_263_3104"/>
<feBlend mode="normal" in="SourceGraphic" in2="effect1_dropShadow_263_3104" result="shape"/>
<feColorMatrix in="SourceAlpha" type="matrix" values="0 0 0 0 0 0 0 0 0 0 0 0 0 0 0 0 0 0 127 0" result="hardAlpha"/>
<feOffset dy="-0.5"/>
<feComposite in2="hardAlpha" operator="arithmetic" k2="-1" k3="1"/>
<feColorMatrix type="matrix" values="0 0 0 0 0 0 0 0 0 0 0 0 0 0 0 0 0 0 0.05 0"/>
<feBlend mode="normal" in2="shape" result="effect2_innerShadow_263_3104"/>
</filter>
<clipPath id="clip0_263_3104">
<rect x="1" y="1" width="389" height="195" rx="10" fill="white"/>
</clipPath>
</defs>
</svg>
